# xmcd
#
# Track frame offsets:
#	150
#	20956
#	39699
#	63604
#	81345
#	99523
#	114856
#	135053
#	150530
#	169386
#	189667
#	203678
#	224405
#	241942
#	258259
#
# Disc length: 3676 seconds
#
# Revision: 1
# Processed by: cddbd v1.5.2PL0 Copyright (c) Steve Scherf et al.
# Submitted via: audiograbber 1.83.01
#
DISCID=ce0e5a0f
DTITLE=Karaoke - Chartbusters CBP60176
DYEAR=1900
DGENRE=Karaoke
TTITLE0=Alan Jackson  - Another Good Reason Not To Drink
TTITLE1=Doug Stone  - Wake up In Love
TTITLE2=Claudia Church - Home in My Heart
TTITLE3=Billy Ray Cyrus - Give My Heart to You
TTITLE4=Chalee Tennison - Someone Else's Turn to Cry
TTITLE5=Ricochet  - Seven Bridges Road
TTITLE6=Faith Hill - Secret of Life
TTITLE7=Kenny Rogers - The Greatest
TTITLE8=Terri Clark - Unsung Hero
TTITLE9=Randy Travis and Kenny Chesney - Baptism Duets
TTITLE10=Warren Brothers - She Wants to Rock
TTITLE11=Shenendoah - Wooden Crosses
TTITLE12=Faith Hill - You Give Me Love
TTITLE13=George Jones - Choices
TTITLE14=David Ball - Watching My Baby Not Come Back
EXTD=
EXTT0=
EXTT1=
EXTT2=
EXTT3=
EXTT4=
EXTT5=
EXTT6=
EXTT7=
EXTT8=
EXTT9=
EXTT10=
EXTT11=
EXTT12=
EXTT13=
EXTT14=
PLAYORDER=
